Coordinates
version=1
nRows=14
nColumns=24
inDegrees=yes

Units are S.I. units (second, meters, Newtons, ...)
Angles are in degrees.

endheader
time	pelvis_tilt	pelvis_list	pelvis_rotation	pelvis_tx	pelvis_ty	pelvis_tz	hip_flexion_r	hip_adduction_r	hip_rotation_r	knee_angle_r	ankle_angle_r	subtalar_angle_r	mtp_angle_r	hip_flexion_l	hip_adduction_l	hip_rotation_l	knee_angle_l	ankle_angle_l	subtalar_angle_l	mtp_angle_l	lumbar_extension	lumbar_bending	lumbar_rotation
      2.00000000	      5.14319484	      0.82516497	      3.56785445	      0.60569607	      1.01140516	      0.01204916	     19.84899180	     -1.67656996	     -4.12306711	    -24.84257561	      0.42011543	     -0.00000300	      0.00000000	    -12.80649775	      1.16469023	      4.44016760	    -41.41968715	      1.63252178	      0.00000900	      0.00000000	    -13.97834552	      1.61910096	     -8.75927212
      2.01666667	      5.02591676	      0.24206903	      3.40149923	      0.60646468	      1.01266060	      0.01525692	     19.09058986	     -0.79992313	     -4.22327081	    -25.51560652	      1.46385703	     -0.00000282	      0.00000000	     -9.15278736	      0.04315226	      2.74979353	    -48.05795782	     -2.98372576	      0.00000916	      0.00000000	    -13.79511020	      2.35188832	     -7.97942325
      2.03333333	      4.97211054	     -0.46735402	      3.54856909	      0.60750919	      1.01462127	      0.01850773	     17.90165866	      0.18775663	     -4.64163840	    -25.57020341	      2.58668773	     -0.00000268	      0.00000000	     -5.68032181	     -1.51760840	      1.38169914	    -53.79754753	     -7.07456437	      0.00000836	      0.00000000	    -13.51201183	      3.06847124	     -7.54969388
      2.05000000	      5.02069378	     -1.10716129	      3.35652353	      0.60746460	      1.01712603	      0.02197828	     16.46821693	      1.21685228	     -4.72657578	    -25.15683780	      3.53470168	     -0.00000251	      0.00000000	     -2.46857886	     -2.96355067	      0.07215427	    -58.72803720	     -9.45475046	      0.00000655	      0.00000000	    -13.57055461	      3.66076111	     -6.67860989
      2.06666667	      5.27999460	     -1.59907048	      3.30728295	      0.60733103	      1.02029662	      0.02532162	     14.72291480	      2.09066216	     -4.77508992	    -24.60221931	      4.47013358	     -0.00000258	      0.00000000	      0.41532599	     -4.18281105	     -0.69103274	    -62.97385498	     -9.72564324	      0.00000469	      0.00000000	    -13.78306674	      3.96317252	     -6.04678250
      2.08333333	      5.33794113	     -1.77682254	      3.02451414	      0.60668858	      1.02370556	      0.02812831	     13.03128628	      2.60904597	     -4.52381099	    -23.67000670	      5.16592979	     -0.00000232	      0.00000000	      3.28463895	     -4.83688070	     -1.38460598	    -66.30903357	     -8.27331212	      0.00000282	      0.00000000	    -13.93367511	      3.98351332	     -5.08076721
      2.10000000	      5.44724274	     -1.87469631	      2.78768879	      0.60645477	      1.02745456	      0.03087935	     11.09794805	      3.02893321	     -4.27748780	    -22.42614605	      5.68680288	     -0.00000201	      0.00000000	      5.89584075	     -5.19782959	     -1.70261514	    -68.70384061	     -6.03528448	      0.00000136	      0.00000000	    -14.04091845	      3.82640671	     -4.34296783
      2.11666667	      5.73096946	     -1.83748616	      2.29116834	      0.60563463	      1.03151764	      0.03391380	      8.79668701	      3.34190998	     -3.72702905	    -20.70868409	      5.91913302	     -0.00000175	      0.00000000	      8.12204511	     -5.38304921	     -2.23806050	    -70.11296859	     -3.97985691	      0.00000071	      0.00000000	    -14.27854259	      3.48476027	     -3.24513020
      2.13333333	      5.78118300	     -1.76995616	      1.87958422	      0.60457416	      1.03482618	      0.03652679	      6.81287778	      3.53972942	     -3.24382938	    -19.10634785	      6.15863961	     -0.00000154	      0.00000000	     10.46649067	     -5.27189485	     -2.36209311	    -70.68976831	     -2.34096030	      0.00000016	      0.00000000	    -14.41250008	      3.09602220	     -2.46348349
      2.15000000	      5.78765823	     -1.66644361	      1.40346542	      0.60351770	      1.03764689	      0.03879699	      4.89111705	      3.65247198	     -2.66087557	    -17.51683385	      6.38677358	     -0.00000151	      0.00000000	     12.62864048	     -5.02791655	     -2.47982933	    -70.39519451	     -1.20187603	      0.00000013	      0.00000000	    -14.36016632	      2.71227904	     -1.70714062
      2.16666667	      5.71531049	     -1.56657679	      0.79067284	      0.60160773	      1.03976283	      0.04107320	      3.18558403	      3.72772440	     -1.96092655	    -16.05724290	      6.55901969	     -0.00000121	      0.00000000	     14.71836707	     -4.80834187	     -2.74546053	    -69.36548359	     -0.39822280	      0.00000035	      0.00000000	    -14.37193078	      2.33658263	     -0.77042368
      2.18333333	      5.84847222	     -1.35676187	      0.37155745	      0.60014871	      1.04181481	      0.04269219	      1.29495600	      3.62164867	     -1.45214375	    -14.74579994	      6.82021615	     -0.00000100	      0.00000000	     16.29756399	     -4.38635436	     -2.85591914	    -67.45725021	      0.22960142	      0.00000023	      0.00000000	    -14.59036162	      1.89303250	     -0.24044260
      2.20000000	      5.62712731	     -1.39513732	     -0.11068877	      0.59781172	      1.04235237	      0.04441483	      0.00218691	      3.76169816	     -0.92000057	    -13.73401677	      7.18097099	     -0.00000092	      0.00000000	     18.18584872	     -4.30645136	     -2.99454410	    -65.06303536	      0.78814272	     -0.00000001	      0.00000000	    -14.49486568	      1.71549169	      0.36798291
      2.21666667	      5.72769834	     -1.27608028	     -0.52643582	      0.59639949	      1.04318084	      0.04583262	     -1.80459801	      3.69888907	     -0.43752167	    -12.51233962	      7.56292735	     -0.00000090	      0.00000000	     19.26476396	     -4.14457531	     -3.28717431	    -61.66860133	      1.15950566	     -0.00000054	      0.00000000	    -14.60735763	      1.32979681	      0.84308899
